<?xml version="1.0" standalone="no"?>
<!DOCTYPE svg PUBLIC "-//W3C//DTD SVG 20010904//EN"
 "http://www.w3.org/TR/2001/REC-SVG-20010904/DTD/svg10.dtd">
<svg version="1.0" xmlns="http://www.w3.org/2000/svg"
 width="1600.000000pt" height="1600.000000pt" viewBox="0 0 1600.000000 1600.000000"
 preserveAspectRatio="xMidYMid meet">
<metadata>
Created by potrace 1.14, written by Peter Selinger 2001-2017
</metadata>
<g transform="translate(0.000000,1600.000000) scale(0.100000,-0.100000)"
fill="#000000" stroke="none">
<path d="M3595 15268 c-5 -25 -2425 -14514 -2425 -14523 0 -3 1920 -4 4268 -2
4615 3 4294 0 4742 53 1141 134 2006 495 2604 1088 453 448 850 1091 1054
1706 247 746 288 1646 106 2338 -264 1007 -983 1735 -2147 2177 -70 26 -126
50 -123 52 2 2 73 22 157 44 821 214 1474 577 1990 1106 514 527 811 1140 911
1883 30 215 32 723 5 940 -84 663 -334 1249 -747 1745 -433 521 -927 866
-1535 1072 -449 152 -1108 263 -1855 313 -402 27 -784 30 -3822 30 l-3178 0
-5 -22z m5799 -3072 c411 -58 682 -172 873 -366 203 -205 294 -477 280 -833
-13 -320 -104 -557 -290 -753 -130 -138 -251 -221 -437 -301 -200 -86 -369
-129 -680 -175 -139 -20 -189 -21 -1192 -25 -989 -4 -1048 -3 -1048 13 0 16
392 2370 406 2437 l6 28 981 -4 c855 -3 997 -6 1101 -21z m-874 -5525 c455
-52 786 -197 1017 -445 203 -216 305 -456 335 -784 31 -341 -57 -640 -273
-933 -240 -324 -557 -476 -1114 -534 -114 -12 -363 -15 -1347 -15 -1104 0
-1208 1 -1208 16 0 9 101 620 225 1358 124 738 225 1345 225 1350 0 13 2019 1
2140 -13z"/>
</g>
</svg>
