<?xml version="1.0" standalone="no"?>
<!DOCTYPE svg PUBLIC "-//W3C//DTD SVG 20010904//EN"
 "http://www.w3.org/TR/2001/REC-SVG-20010904/DTD/svg10.dtd">
<svg version="1.0" xmlns="http://www.w3.org/2000/svg"
 width="1600.000000pt" height="1600.000000pt" viewBox="0 0 1600.000000 1600.000000"
 preserveAspectRatio="xMidYMid meet">
<metadata>
Created by potrace 1.14, written by Peter Selinger 2001-2017
</metadata>
<g transform="translate(0.000000,1600.000000) scale(0.100000,-0.100000)"
fill="#000000" stroke="none">
<path d="M6990 9964 c-276 -34 -445 -78 -610 -159 -136 -67 -198 -112 -310
-224 -236 -237 -340 -487 -340 -820 0 -239 56 -415 187 -592 49 -65 150 -163
216 -208 117 -79 368 -186 887 -378 157 -58 301 -114 321 -124 92 -46 139
-114 139 -199 0 -111 -71 -197 -205 -245 -82 -29 -342 -33 -470 -6 -199 41
-349 144 -425 293 -19 38 -41 68 -48 68 -17 0 -1046 -202 -1051 -206 -2 -2 21
-59 51 -126 210 -470 635 -764 1262 -875 139 -24 174 -26 441 -27 258 -1 304
1 416 21 362 64 650 205 874 428 187 188 296 400 336 657 17 114 7 354 -20
446 -68 232 -197 400 -436 564 -141 97 -282 159 -665 293 -168 59 -343 123
-390 142 -168 68 -220 124 -220 238 0 105 49 170 160 211 68 25 269 31 363 10
189 -42 353 -165 396 -298 7 -21 17 -38 23 -38 21 0 933 232 941 240 13 12
-69 196 -125 280 -28 41 -92 117 -142 168 -220 226 -504 367 -876 438 -118 22
-167 26 -390 29 -140 2 -271 1 -290 -1z"/>
<path d="M397 8062 c-170 -1021 -308 -1860 -308 -1864 1 -13 2203 -10 2301 3
293 36 512 124 658 263 129 122 250 327 304 511 39 135 50 368 24 490 -59 276
-237 479 -518 593 -37 15 -68 30 -68 33 0 3 31 13 70 23 38 10 112 37 162 60
262 118 445 319 518 566 31 108 39 316 16 430 -60 297 -283 554 -562 650 -245
85 -478 100 -1559 100 l-730 0 -308 -1858z m1756 1058 c138 -13 207 -39 267
-99 53 -53 70 -100 70 -193 0 -152 -75 -246 -240 -300 -60 -20 -91 -22 -384
-26 l-319 -4 6 24 c3 12 27 155 53 316 l49 292 195 0 c107 0 243 -5 303 -10z
m-99 -1424 c184 -51 274 -170 264 -350 -9 -164 -102 -271 -270 -311 -49 -11
-138 -15 -400 -15 -299 0 -338 2 -338 16 0 8 25 163 55 344 30 181 55 332 55
336 0 4 129 4 288 1 221 -4 301 -9 346 -21z"/>
<path d="M4017 8062 c-170 -1021 -308 -1860 -308 -1864 1 -5 239 -8 530 -8
l528 0 307 1853 c169 1018 309 1858 311 1865 4 9 -107 12 -528 12 l-532 0
-308 -1858z"/>
<path d="M9187 8062 c-170 -1021 -308 -1860 -308 -1864 1 -5 620 -8 1376 -8
l1375 0 5 23 c9 40 135 806 135 822 0 13 -88 15 -835 15 l-835 0 5 23 c5 24
105 622 105 631 0 3 303 6 674 6 l674 0 6 33 c14 67 126 747 126 761 0 14 -71
16 -670 16 -368 0 -670 3 -670 8 0 4 21 136 47 295 l48 287 801 0 802 0 6 33
c14 67 126 747 126 761 0 14 -136 16 -1342 16 l-1343 0 -308 -1858z"/>
<path d="M12397 8062 c-170 -1021 -308 -1860 -308 -1864 1 -5 205 -8 454 -8
l452 0 163 983 c165 992 181 1103 183 1257 l1 85 19 -65 c85 -284 252 -644
870 -1882 l189 -378 418 0 417 0 308 1848 c169 1016 307 1855 307 1865 0 16
-28 17 -443 17 l-443 0 -122 -727 c-175 -1040 -200 -1224 -187 -1382 l5 -76
-48 135 c-68 188 -157 405 -277 675 -98 220 -175 385 -498 1065 l-145 305
-504 2 -503 3 -308 -1858z"/>
</g>
</svg>
